<svg id="Layer_1" data-name="Layer 1" xmlns="http://www.w3.org/2000/svg" viewBox="0 0 201.59 211.38"><title>hook</title><path d="M750.21,442l-9.65-11.21c-1.91,9.05,0,16.83,2.37,24.58l-1,.66-10.29-12.65-1.43.32c1.26,6.94,2.52,13.88,4,22.16-2.61-3.46-4.44-5.87-6.93-9.18-3.08,18.07,1.62,33.81,7.74,49.35l-1.31.59-9.07-13-1.76.5q3,20.67,6,41.35l-1.09.31L716.49,501.2l-1.1.05v25l-1.45.14q-2.78-12.28-5.54-24.57l-1.45.09q-4.85,22.74-9.7,45.48l-1.86-.29q3.58-27.47,7.18-54.94l-.94-.29-11.52,43.19-1.44-.22q2.21-16.41,4.4-32.83l-1.38-.38Q684.33,526.6,677,551.53l-1.11-.27,11.52-47.49-1.66-.58L644,596.64l-1.25-.51a427.91,427.91,0,0,1,50.09-129.28l-1-.89-2.14,2.7c-16,20.25-28.42,42.66-38.79,66.24-4.74,10.77-10.91,20.28-21.88,25.67-23,11.31-53.25-.52-62.37-24.51-4.89-12.87-.88-24.57,5.5-35.76a42,42,0,0,1,18-17.47c6.56-3.21,13.49-5.73,19.87-9.26s12.19-7.88,18.15-11.81c-3.13,8.76-21.86,29-32.24,34.82-7.72-4.85-10.29-4.47-16.25,2.61-9.28,11-12.88,23.24-7,37.09C579,551,591.06,557.42,606.06,559c17.11,1.77,29.89-6,37.46-22.36,9.74-21,19.5-42.05,32.84-61.11,6.5-9.27,13.47-18.22,20.32-27.23.84-1.1,2.3-1.71,3-2.73l9-11-5.86-2.27,7.08-3.4c-2.43-.7-3.91-1.15-5.4-1.53a9.71,9.71,0,0,1-4.32-1.85L715.59,424c-2.61-1.57-3.92-2.37-6.14-3.72l9.24-.5.12-.74-6.71-2.57-.06-.9,7.23-.44.3-.84-10.84-4.57.3-1.2,9.85,1.37c.11-.68.23-1.47.41-2.65,3.59.26,7.33.67,11.08.79,9.91.31,14.54-3.68,15.82-13.46a10.37,10.37,0,0,1,11.39-9.25c3.75.24,8.69,6.82,8.56,11.4-.14,5-4.28,8.66-10.34,8.47-4.44-.14-6.29,1.93-7.27,5.83-2.43,9.65-2.77,19.11,1.93,28.26a11.47,11.47,0,0,1,.63,2.21Zm7.2-51.19-2.35-.05c-1,2.14-2.62,4.28-2.67,6.44,0,1.23,2.65,3.6,4,3.49s3.81-2.45,3.81-3.82C760.15,394.89,758.41,392.87,757.41,390.85Z" transform="translate(-564.55 -385.26)"/>
<style type="text/css">
#Layer_1{fill:#687864;}
</style>
</svg>
